<?xml version="1.0" encoding="utf-8"?>
<!-- Svg Vector Icons : http://www.onlinewebfonts.com/icon -->
<!DOCTYPE svg PUBLIC "-//W3C//DTD SVG 1.1//EN" "http://www.w3.org/Graphics/SVG/1.1/DTD/svg11.dtd">
<svg version="1.1" xmlns="http://www.w3.org/2000/svg" xmlns:xlink="http://www.w3.org/1999/xlink" x="0px" y="0px" viewBox="0 0 1000 1000" enable-background="new 0 0 1000 1000" xml:space="preserve">
<metadata> Svg Vector Icons : http://www.onlinewebfonts.com/icon </metadata>
<g><g transform="translate(0.000000,511.000000) scale(0.100000,-0.100000)"><path d="M2230.4,3452.9c0-1003.3,7.7-1611.4,21.3-1708.2c60-428,255.6-869.6,553.9-1247.3l120.1-153l131.7,89.1c184,122,369.9,211.1,757.3,364.1c184,71.7,333.1,133.6,329.3,135.6c-3.9,3.9-60,46.5-125.9,94.9c-156.9,114.3-319.6,313.8-414.5,505.5c-129.8,265.3-133.6,298.3-133.6,1107.8v722.4l1129.1,3.9l1127.2,5.8l5.8,306l5.8,304.1H4603H3470v513.2V5010h-619.8h-619.8V3452.9z"/><path d="M6530,3760.8V2511.6H5406.7H4281.5l5.8-304.1l5.8-306l1111.7-5.8l1109.8-3.9l-13.6-73.6c-17.5-100.7-91-275-166.6-404.8c-85.2-145.3-331.2-391.2-453.2-455.1c-54.2-29-555.8-232.4-1113.6-453.2c-559.7-218.8-1076.8-430-1152.4-466.8c-631.4-313.8-1129.1-954.8-1330.6-1714c-42.6-158.8-42.6-187.9-48.4-1638.5l-7.7-1475.8h621.7H3470v1171.7v1171.7h1084.6h1084.6v309.9v309.9H4593.3c-823.1,0-1045.8,5.8-1045.8,25.2c1.9,42.6,73.6,182.1,156.9,306c110.4,164.6,280.8,327.3,416.4,399c63.9,32.9,569.4,240.2,1125.3,459C5801.8-418.7,6324.7-205.7,6408-163.1c528.7,265.3,1007.1,830.9,1224,1444.8c131.7,368,124,263.4,131.7,2078.1l7.7,1650.1h-621.7H6530V3760.8z"/><path d="M6927.1-579.5c-185.9-122-369.9-209.2-749.5-356.4c-178.2-69.7-325.4-129.8-325.4-135.6c0-5.8,38.7-34.9,85.2-63.9c203.3-127.8,443.5-447.4,538.4-710.8c42.6-120.1,44.5-153,50.3-788.3l5.8-664.3h-1162h-1164v-309.9v-309.9H5368H6530v-435.8V-4790h619.8h619.8v1390.6c0,1524.2-3.9,1590.1-116.2,1927.1c-75.5,224.7-207.2,484.2-350.5,689.5c-98.8,145.3-218.9,292.5-234.3,292.5C7064.6-490.4,7002.6-531.1,6927.1-579.5z"/></g></g>
</svg>